<?xml version="1.0" standalone="no"?>
<!DOCTYPE svg PUBLIC "-//W3C//DTD SVG 20010904//EN"
 "http://www.w3.org/TR/2001/REC-SVG-20010904/DTD/svg10.dtd">
<svg version="1.0" xmlns="http://www.w3.org/2000/svg"
 width="3464.000000pt" height="3464.000000pt" viewBox="0 0 3464.000000 3464.000000"
 preserveAspectRatio="xMidYMid meet">
<metadata>
Created by potrace 1.14, written by Peter Selinger 2001-2017
</metadata>
<g transform="translate(0.000000,3464.000000) scale(0.100000,-0.100000)"
fill="#000000" stroke="none">
<path d="M7597 30074 c-1 -1 -63 -5 -137 -8 -268 -14 -414 -23 -460 -31 -14
-2 -56 -7 -95 -10 -38 -4 -88 -8 -110 -11 -22 -3 -56 -7 -75 -9 -19 -2 -54 -7
-77 -10 -24 -3 -62 -7 -85 -10 -71 -8 -120 -15 -178 -25 -30 -5 -71 -12 -90
-15 -227 -36 -536 -99 -730 -149 -30 -8 -91 -23 -135 -34 -272 -69 -971 -311
-1019 -354 -6 -4 -16 -8 -24 -8 -8 0 -44 -14 -80 -31 -37 -17 -107 -49 -157
-72 -180 -83 -432 -216 -578 -304 -48 -29 -92 -53 -97 -53 -6 0 -10 -4 -10 -9
0 -5 -10 -13 -21 -16 -21 -7 -438 -281 -449 -295 -3 -3 -50 -39 -105 -80 -162
-119 -396 -313 -566 -470 -133 -124 -353 -348 -444 -455 -33 -38 -62 -72 -65
-75 -21 -19 -162 -195 -237 -295 -168 -225 -326 -471 -462 -718 -36 -64 -171
-335 -171 -341 0 -2 -17 -42 -39 -88 -150 -322 -313 -831 -396 -1233 -9 -44
-18 -87 -20 -96 -2 -9 -6 -33 -9 -53 -3 -19 -10 -55 -16 -79 -5 -24 -12 -64
-15 -88 -3 -24 -10 -71 -15 -104 -12 -77 -19 -126 -25 -195 -3 -30 -8 -66 -10
-80 -3 -14 -7 -56 -10 -95 -3 -38 -7 -88 -10 -110 -27 -255 -27 -1016 0 -1350
9 -118 16 -196 22 -250 3 -33 7 -71 8 -85 2 -29 16 -138 20 -160 2 -9 6 -43
10 -75 9 -77 11 -92 30 -200 9 -49 21 -116 26 -147 9 -56 40 -203 75 -358 64
-290 235 -808 341 -1040 14 -30 41 -91 61 -135 84 -191 252 -494 400 -720 76
-116 267 -378 304 -416 7 -8 49 -57 93 -109 307 -365 450 -470 725 -527 14 -3
77 -6 140 -6 161 -1 239 23 465 138 275 141 425 201 686 275 75 22 147 41 160
44 199 40 290 57 333 61 28 3 62 7 76 9 291 42 754 52 905 21 11 -3 36 -7 55
-10 164 -24 349 -83 535 -171 92 -43 298 -176 400 -259 127 -102 353 -333 440
-450 17 -22 32 -42 35 -45 12 -11 129 -189 165 -250 144 -246 254 -515 331
-808 20 -73 37 -143 40 -155 2 -12 13 -67 23 -122 23 -114 48 -279 57 -375 3
-36 7 -76 9 -89 27 -166 26 -943 0 -1076 -2 -11 -7 -54 -11 -95 -3 -41 -8 -82
-9 -90 -1 -8 -5 -42 -10 -75 -4 -33 -9 -69 -11 -80 -3 -11 -7 -36 -10 -55 -5
-31 -38 -201 -68 -345 -23 -109 -94 -359 -156 -545 -205 -615 -512 -1209 -957
-1850 -101 -146 -383 -508 -518 -665 -44 -52 -183 -210 -210 -241 -230 -255
-662 -686 -910 -905 -27 -24 -54 -49 -60 -56 -5 -6 -80 -71 -166 -145 -162
-139 -205 -175 -329 -278 -41 -34 -84 -69 -95 -79 -153 -128 -596 -464 -895
-678 -206 -147 -300 -244 -368 -379 -25 -50 -62 -154 -64 -181 0 -5 -5 -19
-10 -33 -16 -42 -17 -220 -2 -300 20 -104 40 -163 85 -248 32 -60 90 -144 119
-172 3 -3 37 -43 75 -90 38 -47 72 -87 75 -90 3 -3 41 -48 84 -100 43 -52 96
-115 116 -140 21 -25 79 -94 130 -155 50 -60 99 -119 108 -130 10 -11 132
-157 272 -325 140 -168 262 -314 271 -325 10 -11 115 -137 234 -280 119 -143
225 -270 236 -283 11 -13 178 -213 372 -445 194 -232 364 -435 377 -451 41
-46 180 -147 245 -176 134 -61 202 -75 360 -74 220 1 313 37 597 230 180 122
187 127 408 282 263 185 961 698 980 721 3 3 32 26 65 51 76 57 488 381 495
389 3 3 39 33 80 66 41 32 102 82 135 110 33 27 83 68 110 90 58 48 188 157
195 165 3 3 48 41 100 85 52 44 97 82 100 85 3 3 37 32 75 65 39 33 84 73 102
90 17 16 42 39 55 49 21 17 186 164 198 176 3 3 57 52 120 110 252 229 449
419 785 755 304 304 419 423 600 620 55 59 111 120 125 135 14 15 50 56 81 91
31 35 70 78 85 94 16 17 49 55 74 84 25 30 66 77 91 105 303 336 955 1161
1190 1506 24 36 47 67 50 70 23 21 399 583 564 845 133 211 445 737 445 751 0
2 11 21 23 42 24 37 66 114 164 297 65 120 363 718 415 830 20 44 51 110 67
148 17 37 45 97 61 133 17 36 30 67 30 69 0 3 13 33 29 67 16 35 45 104 65
153 20 50 43 104 51 120 86 192 340 879 426 1155 17 52 34 105 39 117 19 47
170 559 216 733 61 230 163 649 189 775 2 11 8 40 13 65 19 87 71 345 76 370
2 14 15 88 30 165 14 77 28 155 31 173 3 17 8 47 11 65 3 17 7 43 9 57 8 52
16 106 20 130 3 14 7 43 11 65 3 22 7 50 9 61 2 12 7 48 10 80 4 33 9 68 11
79 2 11 7 40 10 65 3 25 7 56 10 70 2 14 6 48 9 75 3 28 8 66 10 85 16 127 39
357 50 480 3 41 8 91 10 110 2 19 7 79 11 134 3 54 8 115 10 135 1 20 6 90 9
156 4 66 8 140 10 165 19 239 27 1293 12 1600 -12 240 -17 332 -22 390 -3 30
-7 89 -10 130 -3 41 -7 98 -10 125 -21 219 -25 265 -30 295 -2 14 -7 52 -10
85 -3 33 -8 74 -10 90 -2 17 -7 53 -10 80 -11 83 -16 117 -25 175 -5 30 -12
73 -15 95 -2 22 -16 108 -31 190 -14 83 -28 164 -31 180 -4 29 -81 399 -87
420 -1 6 -8 37 -15 70 -65 302 -209 788 -347 1168 -186 513 -473 1122 -713
1513 -14 24 -46 76 -70 116 -52 86 -265 406 -330 496 -57 79 -326 428 -343
446 -7 8 -33 38 -58 67 -55 66 -179 207 -240 273 -58 64 -371 377 -436 436
-27 25 -85 77 -129 115 -44 39 -87 76 -95 84 -8 8 -78 65 -155 126 -605 483
-1259 846 -1970 1097 -280 99 -743 226 -916 252 -20 3 -42 8 -50 10 -16 6
-221 42 -289 51 -25 3 -56 8 -70 10 -14 2 -45 7 -70 10 -25 3 -56 8 -70 10
-14 2 -54 7 -90 11 -36 3 -76 7 -90 9 -42 5 -250 24 -340 31 -75 6 -926 14
-933 8z"/>
<path d="M26108 30074 c-2 -1 -68 -5 -148 -9 -80 -3 -167 -8 -195 -10 -27 -2
-97 -7 -155 -10 -58 -4 -107 -8 -110 -10 -3 -1 -45 -6 -93 -10 -48 -3 -96 -8
-106 -10 -10 -2 -42 -6 -72 -9 -30 -4 -70 -9 -89 -11 -19 -3 -57 -7 -85 -10
-27 -3 -75 -10 -105 -15 -30 -5 -73 -12 -95 -15 -22 -4 -51 -8 -65 -11 -14 -2
-79 -13 -145 -24 -66 -11 -151 -27 -190 -35 -38 -8 -90 -20 -115 -25 -25 -5
-56 -12 -70 -15 -14 -3 -36 -8 -50 -11 -14 -2 -36 -7 -50 -11 -14 -3 -29 -7
-35 -8 -5 -2 -55 -15 -110 -30 -55 -14 -108 -28 -119 -30 -34 -8 -128 -35
-260 -77 -72 -22 -135 -41 -140 -43 -6 -1 -18 -5 -26 -8 -8 -3 -76 -26 -150
-52 -189 -67 -519 -201 -685 -280 -189 -89 -172 -81 -324 -162 -74 -40 -135
-73 -137 -73 -1 0 -81 -47 -176 -104 -200 -120 -451 -286 -563 -374 -5 -4 -35
-25 -65 -47 -53 -38 -358 -284 -391 -315 -9 -8 -51 -46 -95 -85 -81 -71 -370
-357 -459 -455 -347 -379 -671 -852 -905 -1319 -161 -320 -313 -704 -391 -981
-7 -25 -14 -49 -16 -55 -28 -82 -128 -510 -152 -650 -6 -33 -12 -71 -15 -85
-6 -30 -13 -81 -26 -175 -25 -179 -39 -292 -46 -390 -3 -38 -7 -90 -9 -115
-28 -369 -24 -994 10 -1365 4 -44 8 -93 10 -110 14 -163 17 -202 20 -215 1 -8
6 -40 10 -70 3 -30 8 -66 10 -80 3 -14 7 -47 11 -75 3 -27 7 -59 9 -70 3 -23
32 -187 40 -225 3 -14 8 -41 11 -60 50 -302 202 -833 337 -1175 90 -230 226
-513 340 -710 38 -66 78 -135 88 -154 91 -156 317 -470 462 -641 131 -153 326
-358 386 -404 177 -137 436 -200 650 -160 113 21 192 53 393 162 183 99 457
202 708 266 74 19 149 37 165 39 17 3 55 10 85 17 30 6 73 13 95 15 22 3 51 7
65 10 14 2 50 7 80 10 30 4 66 8 80 10 14 2 59 6 100 10 41 3 98 8 125 11 61
6 458 7 500 1 17 -2 55 -7 85 -11 283 -37 556 -139 810 -304 279 -180 585
-495 779 -799 104 -164 211 -383 285 -583 36 -98 105 -324 112 -369 3 -14 9
-42 14 -61 14 -54 59 -284 65 -338 3 -26 10 -74 15 -107 5 -33 11 -94 15 -135
3 -41 8 -95 10 -120 11 -100 16 -237 16 -461 1 -215 -2 -290 -16 -459 -3 -30
-7 -84 -10 -120 -5 -57 -48 -362 -59 -415 -2 -11 -11 -60 -21 -110 -9 -49 -32
-153 -51 -230 -20 -77 -37 -144 -38 -150 -2 -5 -6 -23 -10 -40 -18 -72 -160
-502 -173 -520 -7 -11 -13 -26 -13 -33 0 -8 -6 -28 -14 -45 -8 -18 -38 -88
-66 -157 -110 -262 -317 -662 -490 -945 -194 -317 -470 -701 -719 -1000 -255
-306 -402 -465 -721 -786 -307 -307 -466 -455 -780 -726 -96 -82 -312 -261
-395 -328 -55 -44 -105 -84 -112 -90 -21 -17 -35 -29 -103 -80 -36 -27 -67
-52 -70 -55 -11 -13 -377 -284 -555 -412 -240 -171 -315 -248 -393 -403 -52
-104 -78 -214 -86 -365 -2 -44 17 -173 35 -232 44 -148 84 -212 299 -468 90
-107 180 -215 201 -240 109 -130 173 -208 193 -230 11 -14 201 -241 421 -505
220 -264 410 -491 422 -505 12 -14 48 -57 80 -96 48 -59 265 -318 324 -389 10
-11 70 -83 134 -160 64 -77 126 -151 138 -165 12 -14 64 -77 116 -140 52 -63
100 -120 105 -126 6 -6 36 -40 66 -76 117 -137 277 -237 445 -278 69 -17 255
-20 340 -5 150 27 262 87 615 333 36 25 101 70 145 101 277 191 762 547 1085
795 194 150 581 454 590 465 3 3 39 33 80 66 79 63 501 414 510 424 3 4 70 62
150 131 80 68 147 127 150 130 3 3 43 39 90 80 47 41 87 77 90 80 3 3 54 50
115 105 60 55 119 109 131 120 11 11 69 65 128 120 398 372 865 843 1216 1225
68 74 144 158 170 185 94 102 348 396 492 570 83 99 160 191 171 205 12 14 84
104 160 200 76 96 146 184 155 195 10 11 96 126 193 255 841 1126 1504 2249
2049 3470 271 608 537 1319 710 1900 17 58 39 132 49 165 44 143 99 339 117
415 2 8 33 132 69 275 36 143 67 275 70 293 2 18 6 36 9 41 3 4 8 23 11 42 3
19 10 50 15 69 9 37 56 266 64 313 3 15 7 35 10 45 3 9 7 33 10 52 5 33 9 50
21 110 3 14 8 43 11 65 3 22 7 45 9 50 4 18 15 79 20 110 2 17 7 41 9 55 3 14
8 43 11 65 3 22 14 94 25 160 10 66 22 145 25 175 4 30 9 64 11 75 4 21 11 71
19 135 3 22 7 57 10 79 3 21 8 57 10 81 2 24 7 59 9 79 3 20 8 63 11 96 3 33
8 71 10 85 2 14 6 54 9 90 4 36 8 85 11 110 4 46 13 150 20 230 2 25 6 86 9
135 4 50 8 110 11 135 2 25 7 104 11 175 3 72 8 153 9 180 21 413 21 1291 0
1615 -2 30 -6 107 -10 170 -4 63 -8 131 -10 150 -2 19 -6 78 -10 130 -4 52 -8
106 -10 120 -2 14 -7 57 -10 95 -6 69 -10 110 -20 183 -2 20 -7 60 -10 87 -6
62 -14 122 -20 155 -2 14 -7 52 -11 85 -3 33 -8 69 -10 80 -2 10 -6 37 -9 60
-5 35 -35 215 -50 298 -3 15 -9 53 -15 85 -6 31 -12 68 -15 82 -3 14 -7 36
-10 50 -2 14 -23 108 -45 210 -22 102 -43 196 -46 210 -3 14 -10 43 -16 65 -5
22 -12 47 -14 55 -28 121 -58 232 -111 410 -124 424 -304 908 -483 1295 -41
89 -223 456 -241 485 -17 28 -119 213 -119 215 0 7 -194 323 -216 352 -13 17
-24 35 -24 38 0 6 -125 193 -153 230 -4 5 -67 91 -140 191 -72 100 -148 200
-167 224 -19 23 -50 61 -69 84 -183 225 -296 350 -534 591 -155 157 -216 215
-404 384 -125 111 -469 377 -618 476 -33 22 -64 44 -70 48 -16 13 -146 97
-150 97 -2 0 -30 17 -62 38 -152 101 -518 295 -773 411 -440 200 -1120 410
-1575 485 -171 29 -329 53 -405 61 -30 4 -66 8 -80 10 -14 2 -59 7 -100 10
-41 4 -83 9 -93 11 -10 1 -61 6 -115 10 -53 4 -113 8 -132 10 -38 5 -918 12
-922 8z"/>
</g>
</svg>
